# xmcd
#
# Track frame offsets:
# 150
# 52062
# 91284
# 110895
# 122325
# 151410
# 174978
# 202317
# 224217
# 239655
#
# Disc length: 3590 seconds
#
#
# Revision: 2
# Processed by: cddbd v1.5.1PL2 Copyright (c) Steve Scherf et al.
# Submitted via: FreeRIP 2.51 
#
DISCID=9b0e040a
DTITLE=Chamras Saewataporn - Nirvana
DYEAR=2002
DGENRE=New Age
TTITLE0=Journey - On The Earth
TTITLE1=Catummaharajika - 1st Heaven
TTITLE2=Tavatimsa - 2nd Heaven
TTITLE3=Yama - 3rd Heaven
TTITLE4=Tusita - 4th Heaven
TTITLE5=Nimmanarati - 5th Heaven
TTITLE6=Paranimmitavasavatti - 6th Heaven
TTITLE7=Rupabrahma
TTITLE8=Arupabrahme
TTITLE9=Nirvana - Eternity
EXTD=YEAR: 2002
EXTT0=
EXTT1=
EXTT2=
EXTT3=
EXTT4=
EXTT5=
EXTT6=
EXTT7=
EXTT8=
EXTT9=
PLAYORDER=
